<svg width="41" height="41" viewBox="0 0 41 41" fill="none" xmlns="http://www.w3.org/2000/svg">
<path d="M11.7878 35.1917C14.3503 36.7292 17.4253 37.5834 20.5003 37.5834C29.8962 37.5834 37.5837 29.8959 37.5837 20.5001C37.5837 11.1042 29.8962 3.41675 20.5003 3.41675C11.1045 3.41675 3.41699 11.1042 3.41699 20.5001C3.41699 23.5751 4.27116 26.4792 5.63784 29.0417L4.11155 34.9121C3.80447 36.093 4.89761 37.1603 6.07094 36.8252L11.7878 35.1917Z" stroke="white" stroke-width="2.36538" stroke-miterlimit="10" stroke-linecap="round" stroke-linejoin="round"/>
<path d="M28.1875 25.3662C28.1875 25.643 28.1258 25.9275 27.995 26.2042C27.8641 26.481 27.6947 26.7423 27.4714 26.9883C27.0942 27.4035 26.6785 27.7032 26.2088 27.8955C25.7469 28.0875 25.2465 28.1875 24.7075 28.1875C23.9222 28.1875 23.083 28.003 22.1977 27.6263C21.3123 27.2497 20.4268 26.7423 19.5491 26.1042C18.6638 25.4585 17.8246 24.7435 17.0238 23.9517C16.231 23.1522 15.5149 22.3143 14.8758 21.438C14.2445 20.5615 13.7364 19.6852 13.3668 18.8165C12.9973 17.94 12.8125 17.1022 12.8125 16.3027C12.8125 15.78 12.9049 15.2802 13.0897 14.8189C13.2744 14.35 13.567 13.9195 13.9751 13.5351C14.4678 13.0508 15.0067 12.8125 15.5765 12.8125C15.7921 12.8125 16.0077 12.8586 16.2 12.9509C16.4003 13.0431 16.5774 13.1815 16.7159 13.3814L18.502 15.8952C18.6406 16.0875 18.7408 16.2642 18.81 16.4333C18.8794 16.5947 18.9179 16.7562 18.9179 16.9023C18.9179 17.0868 18.8639 17.2713 18.7562 17.448C18.6561 17.6248 18.5098 17.8093 18.325 17.9938L17.7399 18.6012C17.6552 18.6858 17.6168 18.7857 17.6168 18.9087C17.6168 18.9702 17.6245 19.024 17.6398 19.0855C17.663 19.147 17.686 19.193 17.7014 19.2392C17.84 19.493 18.0786 19.8235 18.4174 20.2233C18.7638 20.623 19.1334 21.0305 19.5338 21.438C19.9495 21.8453 20.3499 22.222 20.758 22.568C21.1582 22.9062 21.4894 23.1368 21.7511 23.2752C21.7896 23.2905 21.8358 23.3135 21.8897 23.3367C21.9512 23.3597 22.0129 23.3675 22.0821 23.3675C22.213 23.3675 22.3131 23.3213 22.3978 23.2368L22.9829 22.6602C23.1754 22.468 23.3602 22.322 23.5373 22.2297C23.7144 22.122 23.8915 22.0683 24.0839 22.0683C24.2302 22.0683 24.3841 22.099 24.5535 22.1682C24.723 22.2375 24.8999 22.3373 25.0925 22.468L27.6409 24.2745C27.8411 24.413 27.9797 24.5743 28.0643 24.7665C28.1413 24.9588 28.1875 25.151 28.1875 25.3662Z" stroke="white" stroke-width="2.36538" stroke-miterlimit="10"/>
</svg>
