<svg width="36" height="36" viewBox="0 0 36 36" fill="none" xmlns="http://www.w3.org/2000/svg">
<g clip-path="url(#clip0_190_954)">
<path d="M18 35.4375C8.36719 35.4375 0.5625 27.6328 0.5625 18C0.5625 8.36719 8.36719 0.5625 18 0.5625C27.6328 0.5625 35.4375 8.36719 35.4375 18C35.4375 27.6328 27.6328 35.4375 18 35.4375ZM9.99141 19.1953L19.5188 28.7227C20.1797 29.3836 21.2484 29.3836 21.9023 28.7227L23.0977 27.5273C23.7586 26.8664 23.7586 25.7977 23.0977 25.1438L15.9539 18L23.0977 10.8562C23.7586 10.1953 23.7586 9.12656 23.0977 8.47266L21.9023 7.27734C21.2414 6.61641 20.1727 6.61641 19.5188 7.27734L9.99141 16.8047C9.33047 17.4656 9.33047 18.5344 9.99141 19.1953Z" fill="black"/>
</g>
<defs>
<clipPath id="clip0_190_954">
<rect width="36" height="36" fill="white"/>
</clipPath>
</defs>
</svg>
