<svg width="15" height="15" viewBox="0 0 15 15" fill="none" xmlns="http://www.w3.org/2000/svg">
<path d="M12.8885 0.189692L0.701806 7.21755C-0.305941 7.80052 -0.209268 9.29164 0.868787 9.73399L4.2172 11.1196V13.5921C4.2172 14.9514 5.95146 15.511 6.75415 14.43L8.03727 12.6986L11.3154 14.0521C11.4882 14.1224 11.6698 14.1575 11.8515 14.1575C12.0917 14.1575 12.329 14.096 12.5428 13.9759C12.9178 13.765 13.1756 13.39 13.243 12.9652L14.9831 1.62222C15.1618 0.447488 13.9021 -0.393278 12.8885 0.189692ZM5.62336 13.5921V11.6997L6.69556 12.142L5.62336 13.5921ZM11.8515 12.7514L7.3459 10.8911L11.4531 4.96477C11.7665 4.5107 11.1748 3.98339 10.7588 4.34372L4.56288 9.74278L1.40488 8.43623L13.5916 1.40543L11.8515 12.7514Z" fill="black"/>
</svg>
