<svg width="16" height="11" viewBox="0 0 16 11" fill="none" xmlns="http://www.w3.org/2000/svg">
<path d="M15.3176 1.72113C15.1377 1.04366 14.6076 0.510098 13.9345 0.329027C12.7144 0 7.82226 0 7.82226 0C7.82226 0 2.93011 0 1.71005 0.329027C1.03695 0.510127 0.506832 1.04366 0.326907 1.72113C0 2.9491 0 5.51113 0 5.51113C0 5.51113 0 8.07317 0.326907 9.30113C0.506832 9.97861 1.03695 10.4899 1.71005 10.671C2.93011 11 7.82226 11 7.82226 11C7.82226 11 12.7144 11 13.9345 10.671C14.6076 10.4899 15.1377 9.97861 15.3176 9.30113C15.6445 8.07317 15.6445 5.51113 15.6445 5.51113C15.6445 5.51113 15.6445 2.9491 15.3176 1.72113ZM6.22224 7.83727V3.185L10.3111 5.51119L6.22224 7.83727Z" fill="black"/>
</svg>
