<svg width="25" height="25" viewBox="0 0 25 25" fill="none" xmlns="http://www.w3.org/2000/svg">
<path d="M21.0938 1.5625H3.90625C3.28465 1.5625 2.68851 1.80943 2.24897 2.24897C1.80943 2.68851 1.5625 3.28465 1.5625 3.90625L1.5625 21.0938C1.5625 21.7154 1.80943 22.3115 2.24897 22.751C2.68851 23.1906 3.28465 23.4375 3.90625 23.4375H21.0938C21.7154 23.4375 22.3115 23.1906 22.751 22.751C23.1906 22.3115 23.4375 21.7154 23.4375 21.0938V3.90625C23.4375 3.28465 23.1906 2.68851 22.751 2.24897C22.3115 1.80943 21.7154 1.5625 21.0938 1.5625ZM20.2935 16.5708L19.561 19.7446C19.5238 19.906 19.433 20.05 19.3035 20.1531C19.1739 20.2562 19.0133 20.3124 18.8477 20.3125C11.0352 20.3125 4.6875 13.979 4.6875 6.15234C4.69331 5.98831 4.75162 5.83047 4.85385 5.70205C4.95607 5.57363 5.09682 5.48141 5.25537 5.43896L8.4292 4.70654C8.48334 4.69509 8.53843 4.68872 8.59375 4.6875C8.73538 4.69465 8.87252 4.73958 8.99093 4.81763C9.10933 4.89568 9.20469 5.004 9.26709 5.13135L10.7319 8.54932C10.7678 8.64147 10.7878 8.73905 10.791 8.83789C10.7791 9.05471 10.6827 9.25822 10.5225 9.40479L8.67236 10.9185C9.79337 13.2944 11.7056 15.2066 14.0815 16.3276L15.5952 14.4775C15.7418 14.3173 15.9453 14.2209 16.1621 14.209C16.261 14.2122 16.3585 14.2321 16.4507 14.2681L19.8687 15.7329C19.9961 15.7952 20.1044 15.8906 20.1825 16.009C20.2606 16.1274 20.3055 16.2646 20.3125 16.4062C20.3115 16.4616 20.3051 16.5167 20.2935 16.5708Z" fill="black"/>
</svg>
