<svg width="570" height="20" viewBox="0 0 570 20" fill="none" xmlns="http://www.w3.org/2000/svg">
<path d="M284.004 1.72934L281.736 6.32656L276.663 7.06614C275.754 7.19809 275.389 8.31961 276.049 8.96198L279.719 12.5384L278.851 17.5904C278.695 18.5036 279.656 19.1877 280.462 18.7606L285 16.3752L289.538 18.7606C290.344 19.1842 291.306 18.5036 291.149 17.5904L290.281 12.5384L293.952 8.96198C294.611 8.31961 294.247 7.19809 293.337 7.06614L288.264 6.32656L285.997 1.72934C285.59 0.909891 284.413 0.899474 284.004 1.72934Z" fill="black"/>
<mask id="path-2-inside-1_190_319" fill="white">
<path d="M0 9.5H397.5V10.5H0V9.5Z"/>
</mask>
<path d="M0 9.5V10.5H397.5V9.5V8.5H0V9.5Z" fill="black" mask="url(#path-2-inside-1_190_319)"/>
<mask id="path-4-inside-2_190_319" fill="white">
<path d="M172.5 9.5H570V10.5H172.5V9.5Z"/>
</mask>
<path d="M172.5 9.5V10.5H570V9.5V8.5H172.5V9.5Z" fill="black" mask="url(#path-4-inside-2_190_319)"/>
</svg>
